# xmcd CD database file
# Copyright (C) 1993-1996 Ti Kan
#
# Track frame offsets:
# 182
# 12622
# 25142
# 36475
# 50112
# 61720
# 72782
# 84460
# 97292
# 108782
# 118717
# 125830
# 131755
# 142970
# 156732
# 168200
# 178357
# 186282
# 195487
# 203672
# 215965
# 223845
# 239037
# 246680
# 260960
# 269890
# 277967
# 289872
#
# Disc length: 4123 seconds
#
# Revision: 0
# Processed by: cddbd v1.4b41PL1 Copyright (c) Steve Scherf et al.
# Submitted via: inCDius 1.1b5
#
DISCID=dc10191c
DTITLE=Jim Reeves - Gentleman Jim  Disc 2
DYEAR=1900
DGENRE=
TTITLE0=Drinking Tequila
TTITLE1=Heart Breaking Baby
TTITLE2=Wagon Load Of Love
TTITLE3=What Were You Doing (Last Night)
TTITLE4=Whispering Willow
TTITLE5=Spanish Violins
TTITLE6=If You Love Me Don't Leave Me
TTITLE7=I'll Tell The World I Love You
TTITLE8=I Love You More
TTITLE9=Home
TTITLE10=I'm Beginning To Forget You
TTITLE11=Have I Told You Lately That I Love You
TTITLE12=Just Call Me Lonesome
TTITLE13=How's The World Treating You
TTITLE14=If Heartaches Are The Fashion
TTITLE15=Dear Hearts And Gentle People
TTITLE16=Roly Poly
TTITLE17=The Wind-Up Doll
TTITLE18=Sweet Evening Breeze
TTITLE19=Your Old Love Letters
TTITLE20='Till The End Of The World
TTITLE21=Making Believe
TTITLE22=The Oklahoma Hills
TTITLE23=The Highway To Nowhere
TTITLE24=If You Were Mine
TTITLE25=Everywhere You Go
TTITLE26=I've Lived A Lot In My Time
TTITLE27=Interview
EXTD=
EXTT0=
EXTT1=
EXTT2=
EXTT3=
EXTT4=
EXTT5=
EXTT6=
EXTT7=
EXTT8=
EXTT9=
EXTT10=
EXTT11=
EXTT12=
EXTT13=
EXTT14=
EXTT15=
EXTT16=
EXTT17=
EXTT18=
EXTT19=
EXTT20=
EXTT21=
EXTT22=
EXTT23=
EXTT24=
EXTT25=
EXTT26=
EXTT27=With Smiley Burnette
PLAYORDER=
